SplineFontDB: 3.0
FontName: andemx
FullName: andemx
FamilyName: andemx
Weight: Regular
Copyright: Copyright (c) 2018, Anthony
UComments: "2018-6-6: Created with FontForge (http://fontforge.org)"
Version: 001.000
ItalicAngle: 0
UnderlinePosition: -31.443
UnderlineWidth: 0
Ascent: 670
Descent: 158
InvalidEm: 0
LayerCount: 2
Layer: 0 0 "Arri+AOgA-re" 1
Layer: 1 0 "Avant" 0
XUID: [1021 101 -694660715 26831]
FSType: 0
OS2Version: 0
OS2_WeightWidthSlopeOnly: 0
OS2_UseTypoMetrics: 1
CreationTime: 1528289563
ModificationTime: 1528369666
PfmFamily: 17
TTFWeight: 400
TTFWidth: 5
LineGap: 37
VLineGap: 0
OS2TypoAscent: 0
OS2TypoAOffset: 1
OS2TypoDescent: 0
OS2TypoDOffset: 1
OS2TypoLinegap: 37
OS2WinAscent: 0
OS2WinAOffset: 1
OS2WinDescent: 0
OS2WinDOffset: 1
HheadAscent: 0
HheadAOffset: 1
HheadDescent: 0
HheadDOffset: 1
OS2Vendor: 'PfEd'
MarkAttachClasses: 1
DEI: 91125
LangName: 1033
Encoding: ISO8859-1
UnicodeInterp: none
NameList: AGL For New Fonts
DisplaySize: -48
AntiAlias: 1
FitToEm: 0
WidthSeparation: 16
WinInfo: 0 19 14
BeginPrivate: 1
BlueValues 22 [3 10 354 362 464 464]
EndPrivate
TeXData: 1 0 0 346030 173015 115343 626560 1048576 115343 783286 444596 497025 792723 393216 433062 380633 303038 157286 324010 404750 52429 2506097 1059062 262144
BeginChars: 256 53

StartChar: a
Encoding: 97 97 0
Width: 509
VWidth: 0
Flags: HMW
LayerCount: 2
Fore
SplineSet
406.608398438 62.3125 m 1
 364.702148438 29.32421875 311.827148438 9.64453125 254.35546875 9.64453125 c 0
 118.296875 9.64453125 8 119.94140625 8 256 c 0
 7.9970703125 392.05859375 118.293945312 502.35546875 254.3515625 502.35546875 c 0
 390.41015625 502.35546875 500.70703125 392.05859375 500.70703125 256 c 2
 500.708007812 56.693359375 l 2
 500.708984375 30.708984375 479.64453125 9.64453125 453.661132812 9.64453125 c 0
 427.676757812 9.64453125 406.612304688 30.708984375 406.612304688 56.693359375 c 2
 406.608398438 62.3125 l 1
254.353515625 103.741210938 m 0
 338.444335938 103.741210938 406.612304688 171.909179688 406.612304688 256 c 0
 406.612304688 340.090820312 338.444335938 408.258789062 254.353515625 408.258789062 c 0
 170.263671875 408.258789062 102.094726562 340.090820312 102.094726562 256 c 0
 102.094726562 171.909179688 170.263671875 103.741210938 254.353515625 103.741210938 c 0
EndSplineSet
EndChar

StartChar: b
Encoding: 98 98 1
Width: 509
VWidth: 0
Flags: HW
LayerCount: 2
Fore
SplineSet
55.0478515625 654.602539062 m 0
 81.0322265625 654.602539062 102.095703125 633.538085938 102.096679688 607.553710938 c 2
 102.098632812 449.6875 l 1
 144.005859375 482.67578125 196.879882812 502.356445312 254.350585938 502.356445312 c 0
 390.409179688 502.356445312 500.706054688 392.059570312 500.706054688 256.000976562 c 0
 500.709960938 119.942382812 390.413085938 9.6455078125 254.354492188 9.6455078125 c 0
 118.296875 9.6455078125 8 119.942382812 8 256.000976562 c 2
 8 607.553710938 l 2
 7.9990234375 633.538085938 29.064453125 654.602539062 55.0478515625 654.602539062 c 0
254.352539062 408.258789062 m 0
 170.262695312 408.258789062 102.094726562 340.091796875 102.094726562 256.000976562 c 0
 102.094726562 171.91015625 170.262695312 103.741210938 254.352539062 103.741210938 c 0
 338.443359375 103.741210938 406.612304688 171.91015625 406.612304688 256.000976562 c 0
 406.612304688 340.091796875 338.443359375 408.258789062 254.352539062 408.258789062 c 0
EndSplineSet
EndChar

StartChar: c
Encoding: 99 99 2
Width: 450
VWidth: 0
Flags: HW
LayerCount: 2
Fore
SplineSet
80.1552734375 81.80078125 m 0
 -16.0517578125 178.0078125 -16.0517578125 333.9921875 80.1552734375 430.19921875 c 0
 176.36328125 526.407226562 332.346679688 526.407226562 428.5546875 430.19921875 c 0
 446.927734375 411.826171875 446.927734375 382.037109375 428.5546875 363.663085938 c 0
 410.180664062 345.290039062 380.391601562 345.290039062 362.018554688 363.663085938 c 0
 302.557617188 423.124023438 206.15234375 423.124023438 146.69140625 363.663085938 c 0
 87.23046875 304.202148438 87.23046875 207.797851562 146.69140625 148.336914062 c 0
 206.15234375 88.8759765625 302.557617188 88.8759765625 362.018554688 148.336914062 c 0
 380.391601562 166.709960938 410.180664062 166.709960938 428.5546875 148.336914062 c 0
 446.927734375 129.962890625 446.927734375 100.173828125 428.5546875 81.80078125 c 0
 332.346679688 -14.4072265625 176.36328125 -14.4072265625 80.1552734375 81.80078125 c 0
EndSplineSet
EndChar

StartChar: d
Encoding: 100 100 3
Width: 509
VWidth: 0
Flags: HW
LayerCount: 2
Fore
SplineSet
406.608398438 449.69921875 m 1
 406.610351562 607.56640625 l 2
 406.611328125 633.549804688 427.674804688 654.614257812 453.659179688 654.614257812 c 0
 479.642578125 654.614257812 500.70703125 633.549804688 500.706054688 607.56640625 c 2
 500.70703125 256.01171875 l 2
 500.70703125 119.953125 390.41015625 9.65625 254.3515625 9.65625 c 0
 118.293945312 9.65625 7.99609375 119.953125 8 256.01171875 c 0
 8 392.0703125 118.296875 502.3671875 254.35546875 502.3671875 c 0
 311.826171875 502.3671875 364.701171875 482.6875 406.608398438 449.69921875 c 1
254.353515625 408.270507812 m 0
 170.262695312 408.270507812 102.094726562 340.1015625 102.094726562 256.01171875 c 0
 102.094726562 171.920898438 170.262695312 103.752929688 254.353515625 103.752929688 c 0
 338.443359375 103.752929688 406.612304688 171.920898438 406.612304688 256.01171875 c 0
 406.612304688 340.1015625 338.443359375 408.270507812 254.353515625 408.270507812 c 0
EndSplineSet
EndChar

StartChar: e
Encoding: 101 101 4
Width: 509
VWidth: 0
Flags: HW
LayerCount: 2
Fore
SplineSet
254.35546875 502.356445312 m 0
 390.413085938 502.356445312 500.709960938 392.059570312 500.709960938 256.000976562 c 0
 500.709960938 230.016601562 479.645507812 208.952148438 453.661132812 208.952148438 c 2
 109.502929688 208.959960938 l 1
 129.3203125 147.891601562 186.681640625 103.741210938 254.35546875 103.741210938 c 0
 280.338867188 103.741210938 301.403320312 82.6767578125 301.403320312 56.6923828125 c 0
 301.403320312 30.708984375 280.338867188 9.6455078125 254.35546875 9.6455078125 c 0
 118.296875 9.6455078125 8 119.942382812 8 256.000976562 c 0
 8 392.059570312 118.296875 502.356445312 254.35546875 502.356445312 c 0
254.35546875 408.258789062 m 0
 186.685546875 408.258789062 129.325195312 364.114257812 109.50390625 303.051757812 c 1
 399.20703125 303.043945312 l 1
 379.388671875 364.110351562 322.02734375 408.258789062 254.35546875 408.258789062 c 0
EndSplineSet
EndChar

StartChar: f
Encoding: 102 102 5
Width: 309
VWidth: 0
Flags: HW
LayerCount: 2
Fore
SplineSet
8 56.6923828125 m 2
 8 408.252929688 l 2
 8 544.305664062 118.296875 654.602539062 254.35546875 654.602539062 c 0
 280.338867188 654.602539062 301.403320312 633.5390625 301.403320312 607.5546875 c 0
 301.403320312 581.571289062 280.338867188 560.506835938 254.354492188 560.506835938 c 0
 186.682617188 560.506835938 129.321289062 516.357421875 109.502929688 455.291992188 c 1
 150.159179688 484.892578125 200.217773438 502.35546875 254.354492188 502.35546875 c 0
 280.338867188 502.35546875 301.403320312 481.291015625 301.403320312 455.307617188 c 0
 301.403320312 429.323242188 280.338867188 408.259765625 254.354492188 408.259765625 c 0
 170.264648438 408.258789062 102.095703125 340.090820312 102.095703125 256 c 2
 102.095703125 56.6923828125 l 2
 102.095703125 30.708984375 81.0322265625 9.64453125 55.0478515625 9.64453125 c 0
 29.0634765625 9.64453125 8 30.708984375 8 56.6923828125 c 2
EndSplineSet
EndChar

StartChar: g
Encoding: 103 103 6
Width: 509
VWidth: 0
Flags: HW
LayerCount: 2
Fore
SplineSet
361.997070312 -6.71875 m 0
 379.595703125 10.8798828125 391.985351562 31.7158203125 399.166992188 53.87109375 c 1
 358.518554688 24.287109375 308.473632812 6.8349609375 254.352539062 6.8349609375 c 0
 118.293945312 6.8349609375 7.9970703125 117.131835938 8 253.190429688 c 0
 8 389.248046875 118.296875 499.544921875 254.35546875 499.544921875 c 0
 311.827148438 499.544921875 364.702148438 479.865234375 406.608398438 446.877929688 c 1
 406.612304688 452.497070312 l 2
 406.61328125 478.481445312 427.676757812 499.544921875 453.661132812 499.544921875 c 0
 479.64453125 499.544921875 500.708984375 478.481445312 500.708007812 452.497070312 c 2
 500.70703125 253.190429688 l 1
 500.70703125 100.930664062 l 2
 500.704101562 37.8876953125 476.6328125 -25.154296875 428.533203125 -73.2548828125 c 0
 332.325195312 -169.461914062 176.341796875 -169.461914062 80.1337890625 -73.2548828125 c 0
 61.7607421875 -54.880859375 61.7607421875 -25.091796875 80.1337890625 -6.71875 c 0
 98.5068359375 11.6552734375 128.296875 11.6552734375 146.669921875 -6.71875 c 0
 206.130859375 -66.1796875 302.536132812 -66.1796875 361.997070312 -6.71875 c 0
254.353515625 100.930664062 m 0
 338.444335938 100.930664062 406.61328125 169.099609375 406.61328125 253.190429688 c 0
 406.61328125 337.280273438 338.444335938 405.44921875 254.353515625 405.44921875 c 0
 170.263671875 405.44921875 102.094726562 337.280273438 102.094726562 253.190429688 c 0
 102.094726562 169.099609375 170.263671875 100.930664062 254.353515625 100.930664062 c 0
EndSplineSet
EndChar

StartChar: h
Encoding: 104 104 7
Width: 509
VWidth: 0
Flags: HW
LayerCount: 2
Fore
SplineSet
8 607.5546875 m 2
 8 633.5390625 29.0634765625 654.602539062 55.0478515625 654.602539062 c 0
 81.03125 654.602539062 102.095703125 633.5390625 102.096679688 607.5546875 c 2
 102.098632812 449.6875 l 1
 144.004882812 482.67578125 196.879882812 502.35546875 254.3515625 502.35546875 c 0
 390.41015625 502.35546875 500.70703125 392.05859375 500.70703125 256 c 2
 500.7109375 56.693359375 l 2
 500.709960938 30.7099609375 479.645507812 9.6455078125 453.662109375 9.6455078125 c 0
 427.677734375 9.6455078125 406.61328125 30.7099609375 406.614257812 56.693359375 c 2
 406.611328125 256 l 2
 406.611328125 340.090820312 338.442382812 408.258789062 254.352539062 408.258789062 c 0
 170.26171875 408.258789062 102.09375 340.090820312 102.09375 256 c 2
 102.095703125 56.6923828125 l 2
 102.094726562 30.708984375 81.03125 9.64453125 55.046875 9.64453125 c 0
 29.0634765625 9.64453125 8 30.708984375 8 56.6923828125 c 2
 8 332.124023438 l 1
 8 607.5546875 l 2
EndSplineSet
EndChar

StartChar: i
Encoding: 105 105 8
Width: 110
VWidth: 0
Flags: HW
LayerCount: 2
Fore
SplineSet
102.095703125 607.5546875 m 0
 102.095703125 581.5703125 81.0322265625 560.506835938 55.0478515625 560.506835938 c 0
 29.0634765625 560.506835938 8 581.5703125 8 607.5546875 c 0
 8 633.5390625 29.0634765625 654.602539062 55.0478515625 654.602539062 c 0
 81.0322265625 654.602539062 102.095703125 633.5390625 102.095703125 607.5546875 c 0
102.095703125 56.693359375 m 2
 102.095703125 30.708984375 81.0322265625 9.64453125 55.0478515625 9.64453125 c 0
 29.064453125 9.64453125 8 30.708984375 8 56.693359375 c 2
 8 455.301757812 l 2
 8 481.279296875 29.0634765625 502.34375 55.0478515625 502.34375 c 0
 81.0322265625 502.34375 102.095703125 481.279296875 102.095703125 455.301757812 c 2
 102.095703125 56.693359375 l 2
EndSplineSet
EndChar

StartChar: j
Encoding: 106 106 9
Width: 168
VWidth: 0
Flags: HW
LayerCount: 2
Fore
SplineSet
88.31640625 -70.9453125 m 0
 69.943359375 -89.3193359375 40.154296875 -89.3193359375 21.779296875 -70.9453125 c 0
 3.40625 -52.572265625 3.40625 -22.783203125 21.779296875 -4.41015625 c 0
 51.6328125 25.443359375 66.498046875 64.609375 66.376953125 103.737304688 c 2
 66.376953125 455.301757812 l 2
 66.376953125 481.279296875 87.44140625 502.34375 113.42578125 502.34375 c 0
 139.41015625 502.34375 160.47265625 481.279296875 160.47265625 455.301757812 c 2
 160.47265625 103.732421875 l 2
 160.591796875 40.51953125 136.5390625 -22.72265625 88.31640625 -70.9453125 c 0
113.42578125 560.506835938 m 0
 87.44140625 560.506835938 66.376953125 581.5703125 66.376953125 607.5546875 c 0
 66.376953125 633.5390625 87.44140625 654.602539062 113.42578125 654.602539062 c 0
 139.41015625 654.602539062 160.47265625 633.5390625 160.47265625 607.5546875 c 0
 160.47265625 581.5703125 139.41015625 560.506835938 113.42578125 560.506835938 c 0
EndSplineSet
EndChar

StartChar: k
Encoding: 107 107 10
Width: 309
VWidth: 0
Flags: HW
LayerCount: 2
Fore
SplineSet
102.095703125 56.779296875 m 2
 102.095703125 30.708984375 81.0322265625 9.64453125 55.0478515625 9.64453125 c 0
 29.0634765625 9.64453125 8 30.708984375 8 56.779296875 c 2
 8 607.5546875 l 2
 8 633.5390625 29.0634765625 654.602539062 55.0478515625 654.602539062 c 0
 81.0322265625 654.602539062 102.095703125 633.5390625 102.095703125 607.5546875 c 2
 102.095703125 369.583984375 l 1
 142.41015625 409.899414062 187.212890625 454.702148438 221.086914062 488.576171875 c 0
 229.758789062 497.291015625 241.657226562 502.624023438 254.353515625 502.35546875 c 0
 279.6484375 502.893554688 301.9375 480.620117188 301.401367188 455.306640625 c 0
 301.669921875 442.720703125 296.21484375 430.696289062 287.623046875 422.041015625 c 0
 240.80078125 375.21875 168.404296875 302.822265625 121.58203125 256 c 1
 167.0546875 210.52734375 242.150390625 135.431640625 287.623046875 89.958984375 c 0
 296.224609375 81.3037109375 301.66796875 69.2939453125 301.401367188 56.6923828125 c 0
 301.940429688 31.3974609375 279.666015625 9.1083984375 254.353515625 9.64453125 c 0
 241.701171875 9.375 229.754882812 14.751953125 221.086914062 23.4228515625 c 0
 191.508789062 53.0009765625 143.087890625 101.421875 102.096679688 142.411132812 c 1
 102.095703125 56.779296875 l 2
EndSplineSet
EndChar

StartChar: l
Encoding: 108 108 11
Width: 110
VWidth: 0
Flags: HW
LayerCount: 2
Fore
SplineSet
55.0478515625 9.64453125 m 0
 29.0634765625 9.64453125 8 30.708984375 8 56.779296875 c 2
 8 607.5546875 l 2
 8 633.5390625 29.0634765625 654.602539062 55.0478515625 654.602539062 c 0
 81.0322265625 654.602539062 102.095703125 633.5390625 102.095703125 607.5546875 c 2
 102.095703125 56.779296875 l 2
 102.095703125 30.708984375 81.0322265625 9.64453125 55.0478515625 9.64453125 c 0
EndSplineSet
EndChar

StartChar: m
Encoding: 109 109 12
Width: 816
VWidth: 0
Flags: HW
LayerCount: 2
Fore
SplineSet
229.208007812 519.466796875 m 0
 302.778320312 519.466796875 367.9609375 483.551757812 408.188476562 428.315429688 c 1
 448.41796875 483.567382812 513.587890625 519.466796875 587.139648438 519.466796875 c 0
 709.30859375 519.466796875 808.34765625 420.427734375 808.34765625 298.255859375 c 2
 808.350585938 119.29296875 l 2
 808.350585938 95.9609375 789.435546875 77.046875 766.104492188 77.046875 c 0
 742.772460938 77.046875 723.858398438 95.9609375 723.859375 119.29296875 c 2
 723.857421875 298.255859375 l 2
 723.857421875 373.763671875 662.646484375 434.974609375 587.138671875 434.974609375 c 0
 511.631835938 434.974609375 450.420898438 373.763671875 450.419921875 298.255859375 c 2
 450.422851562 119.29296875 l 2
 450.421875 95.9609375 431.5078125 77.046875 408.17578125 77.046875 c 0
 384.84375 77.046875 365.9296875 95.9609375 365.930664062 119.29296875 c 2
 365.927734375 298.255859375 l 2
 365.927734375 373.763671875 304.716796875 434.974609375 229.209960938 434.974609375 c 0
 153.702148438 434.974609375 92.4912109375 373.763671875 92.4912109375 298.255859375 c 2
 92.494140625 119.291992188 l 2
 92.4931640625 95.9599609375 73.5791015625 77.0458984375 50.2470703125 77.0458984375 c 0
 26.9150390625 77.0458984375 8.0009765625 95.9599609375 8.001953125 119.291992188 c 2
 8.0009765625 366.610351562 l 1
 8 477.220703125 l 2
 8 500.552734375 26.9140625 519.466796875 50.2451171875 519.466796875 c 0
 73.5771484375 519.466796875 92.4912109375 500.552734375 92.4921875 477.220703125 c 2
 92.4951171875 472.173828125 l 1
 130.125 501.795898438 177.602539062 519.466796875 229.208007812 519.466796875 c 0
EndSplineSet
EndChar

StartChar: n
Encoding: 110 110 13
Width: 509
VWidth: 0
Flags: HW
LayerCount: 2
Fore
SplineSet
8 455.306640625 m 2
 7.9990234375 481.291015625 29.0634765625 502.35546875 55.046875 502.35546875 c 0
 81.03125 502.35546875 102.095703125 481.291015625 102.095703125 455.306640625 c 2
 102.099609375 449.6875 l 1
 144.005859375 482.67578125 196.880859375 502.35546875 254.352539062 502.35546875 c 0
 390.411132812 502.35546875 500.708007812 392.05859375 500.708007812 256 c 2
 500.711914062 56.693359375 l 2
 500.7109375 30.708984375 479.646484375 9.6455078125 453.663085938 9.6455078125 c 0
 427.678710938 9.6455078125 406.614257812 30.708984375 406.615234375 56.693359375 c 2
 406.612304688 256 l 2
 406.612304688 340.090820312 338.444335938 408.258789062 254.353515625 408.258789062 c 0
 170.262695312 408.258789062 102.094726562 340.090820312 102.094726562 256 c 2
 102.096679688 56.6923828125 l 2
 102.095703125 30.708984375 81.0322265625 9.64453125 55.0478515625 9.64453125 c 0
 29.0634765625 9.64453125 8 30.708984375 8.0009765625 56.6923828125 c 2
 8.0009765625 332.124023438 l 1
 8 455.306640625 l 2
EndSplineSet
EndChar

StartChar: o
Encoding: 111 111 14
Width: 509
VWidth: 0
Flags: HW
LayerCount: 2
Fore
SplineSet
406.614257812 256 m 0
 406.614257812 340.046875 338.40234375 408.258789062 254.354492188 408.258789062 c 0
 170.307617188 408.258789062 102.095703125 340.046875 102.095703125 256 c 0
 102.095703125 171.953125 170.307617188 103.741210938 254.354492188 103.741210938 c 0
 338.40234375 103.741210938 406.614257812 171.953125 406.614257812 256 c 0
500.709960938 256 m 0
 500.709960938 119.94140625 390.413085938 9.64453125 254.354492188 9.64453125 c 0
 118.296875 9.64453125 8 119.94140625 8 256 c 0
 8 392.05859375 118.296875 502.35546875 254.354492188 502.35546875 c 0
 390.413085938 502.35546875 500.709960938 392.05859375 500.709960938 256 c 0
EndSplineSet
EndChar

StartChar: p
Encoding: 112 112 15
Width: 509
VWidth: 0
Flags: HW
LayerCount: 2
Fore
SplineSet
102.098632812 62.3125 m 1
 102.096679688 -95.5546875 l 2
 102.095703125 -121.5390625 81.0322265625 -142.602539062 55.0478515625 -142.602539062 c 0
 29.0634765625 -142.602539062 8 -121.5390625 8.0009765625 -95.5546875 c 2
 8 256 l 2
 8 392.05859375 118.296875 502.35546875 254.35546875 502.35546875 c 0
 390.413085938 502.35546875 500.709960938 392.05859375 500.70703125 256 c 0
 500.70703125 119.94140625 390.41015625 9.64453125 254.3515625 9.64453125 c 0
 196.879882812 9.64453125 144.004882812 29.32421875 102.098632812 62.3125 c 1
254.353515625 103.741210938 m 0
 338.443359375 103.741210938 406.612304688 171.909179688 406.612304688 256 c 0
 406.612304688 340.090820312 338.443359375 408.258789062 254.353515625 408.258789062 c 0
 170.262695312 408.258789062 102.094726562 340.090820312 102.094726562 256 c 0
 102.094726562 171.909179688 170.262695312 103.741210938 254.353515625 103.741210938 c 0
EndSplineSet
EndChar

StartChar: q
Encoding: 113 113 16
Width: 509
VWidth: 0
Flags: HW
LayerCount: 2
Fore
SplineSet
406.608398438 62.30078125 m 1
 364.702148438 29.3125 311.827148438 9.6328125 254.35546875 9.6328125 c 0
 118.296875 9.6328125 8 119.9296875 8 255.98828125 c 0
 7.9970703125 392.046875 118.293945312 502.34375 254.3515625 502.34375 c 0
 390.41015625 502.34375 500.70703125 392.046875 500.70703125 255.98828125 c 2
 500.706054688 -95.56640625 l 2
 500.70703125 -121.549804688 479.643554688 -142.614257812 453.659179688 -142.614257812 c 0
 427.674804688 -142.614257812 406.611328125 -121.549804688 406.610351562 -95.56640625 c 2
 406.608398438 62.30078125 l 1
254.353515625 103.729492188 m 0
 338.444335938 103.729492188 406.612304688 171.8984375 406.612304688 255.98828125 c 0
 406.612304688 340.079101562 338.444335938 408.247070312 254.353515625 408.247070312 c 0
 170.263671875 408.247070312 102.094726562 340.079101562 102.094726562 255.98828125 c 0
 102.094726562 171.8984375 170.263671875 103.729492188 254.353515625 103.729492188 c 0
EndSplineSet
EndChar

StartChar: r
Encoding: 114 114 17
Width: 309
VWidth: 0
Flags: HW
LayerCount: 2
Fore
SplineSet
102.095703125 256 m 2
 102.09765625 56.693359375 l 2
 102.096679688 30.708984375 81.0322265625 9.64453125 55.048828125 9.64453125 c 0
 29.064453125 9.64453125 8.0009765625 30.708984375 8.001953125 56.693359375 c 2
 8.0009765625 332.124023438 l 1
 8 455.306640625 l 2
 7.9990234375 481.291015625 29.0634765625 502.35546875 55.046875 502.35546875 c 0
 81.03125 502.35546875 102.095703125 481.291015625 102.095703125 455.306640625 c 2
 102.099609375 449.6875 l 1
 144.005859375 482.67578125 196.880859375 502.35546875 254.354492188 502.35546875 c 0
 280.33984375 502.35546875 301.404296875 481.287109375 301.404296875 455.297851562 c 0
 301.404296875 429.30859375 280.33984375 408.240234375 254.35546875 408.249023438 c 0
 170.263671875 408.258789062 102.095703125 340.090820312 102.095703125 256 c 2
EndSplineSet
EndChar

StartChar: s
Encoding: 115 115 18
Width: 392
VWidth: 0
Flags: HW
LayerCount: 2
Fore
SplineSet
21.7890625 430.19921875 m 0
 117.997070312 526.408203125 273.98046875 526.407226562 370.188476562 430.200195312 c 0
 388.561523438 411.826171875 388.561523438 382.037109375 370.1875 363.6640625 c 0
 351.814453125 345.291015625 322.025390625 345.291015625 303.65234375 363.6640625 c 0
 255.80859375 411.506835938 184.0234375 420.838867188 126.833984375 391.69140625 c 1
 370.204101562 148.3203125 l 2
 388.561523438 129.963867188 388.561523438 100.174804688 370.186523438 81.80078125 c 0
 273.978515625 -14.40625 117.995117188 -14.40625 21.787109375 81.80078125 c 0
 3.4130859375 100.173828125 3.4130859375 129.962890625 21.7861328125 148.3359375 c 0
 40.16015625 166.709960938 69.94921875 166.709960938 88.3232421875 148.336914062 c 0
 136.174804688 100.486328125 207.952148438 91.142578125 265.146484375 120.306640625 c 1
 21.7216796875 363.729492188 l 2
 3.4150390625 382.036132812 3.4150390625 411.825195312 21.7890625 430.19921875 c 0
EndSplineSet
EndChar

StartChar: t
Encoding: 116 116 19
Width: 309
VWidth: 0
Flags: HW
LayerCount: 2
Fore
SplineSet
102.095703125 256 m 2
 102.09765625 56.6923828125 l 2
 102.096679688 30.708984375 81.0322265625 9.64453125 55.048828125 9.64453125 c 0
 29.064453125 9.64453125 8.0009765625 30.708984375 8.001953125 56.6923828125 c 2
 8.0009765625 332.124023438 l 1
 8 607.5546875 l 2
 7.9990234375 633.5390625 29.0634765625 654.602539062 55.046875 654.602539062 c 0
 81.03125 654.602539062 102.095703125 633.5390625 102.095703125 607.5546875 c 2
 102.099609375 449.6875 l 1
 144.005859375 482.67578125 196.880859375 502.35546875 254.354492188 502.35546875 c 0
 280.33984375 502.35546875 301.404296875 481.287109375 301.404296875 455.297851562 c 0
 301.404296875 429.30859375 280.33984375 408.240234375 254.35546875 408.249023438 c 0
 170.263671875 408.258789062 102.095703125 340.090820312 102.095703125 256 c 2
EndSplineSet
EndChar

StartChar: u
Encoding: 117 117 20
Width: 509
VWidth: 0
Flags: HW
LayerCount: 2
Fore
SplineSet
500.711914062 56.693359375 m 2
 500.712890625 30.708984375 479.6484375 9.64453125 453.665039062 9.64453125 c 0
 427.680664062 9.64453125 406.616210938 30.708984375 406.616210938 56.693359375 c 2
 406.612304688 62.3125 l 1
 364.706054688 29.32421875 311.831054688 9.64453125 254.359375 9.64453125 c 0
 118.30078125 9.64453125 8.00390625 119.94140625 8.00390625 256 c 2
 8 455.306640625 l 2
 8.0009765625 481.291015625 29.0654296875 502.354492188 55.048828125 502.354492188 c 0
 81.033203125 502.354492188 102.09765625 481.291015625 102.096679688 455.306640625 c 2
 102.098632812 256 l 2
 102.098632812 171.91015625 170.267578125 103.741210938 254.358398438 103.741210938 c 0
 338.448242188 103.741210938 406.6171875 171.91015625 406.6171875 256 c 2
 406.614257812 455.307617188 l 2
 406.615234375 481.291015625 427.6796875 502.35546875 453.663085938 502.35546875 c 0
 479.647460938 502.35546875 500.711914062 481.291015625 500.7109375 455.307617188 c 2
 500.7109375 179.875976562 l 1
 500.711914062 56.693359375 l 2
EndSplineSet
EndChar

StartChar: v
Encoding: 118 118 21
Width: 509
VWidth: 0
Flags: HW
LayerCount: 2
Fore
SplineSet
8 455.306640625 m 2
 8.0009765625 481.291015625 29.064453125 502.354492188 55.048828125 502.354492188 c 0
 81.033203125 502.354492188 102.096679688 481.291015625 102.095703125 455.306640625 c 2
 102.098632812 256 l 2
 102.098632812 171.91015625 170.267578125 103.741210938 254.357421875 103.741210938 c 0
 338.448242188 103.741210938 406.616210938 171.91015625 406.616210938 256 c 2
 406.614257812 455.307617188 l 2
 406.615234375 481.291015625 427.6796875 502.35546875 453.663085938 502.35546875 c 0
 479.647460938 502.35546875 500.7109375 481.291015625 500.709960938 455.307617188 c 2
 500.7109375 256 l 2
 500.7109375 119.94140625 390.4140625 9.64453125 254.356445312 9.64453125 c 0
 118.297851562 9.64453125 8.0009765625 119.94140625 8.001953125 256 c 2
 8 455.306640625 l 2
EndSplineSet
EndChar

StartChar: w
Encoding: 119 119 22
Width: 816
VWidth: 0
Flags: HW
LayerCount: 2
Fore
SplineSet
229.2109375 77.046875 m 0
 107.040039062 77.046875 8.0009765625 176.0859375 8.0029296875 298.256835938 c 2
 8 477.219726562 l 2
 8.0009765625 500.551757812 26.9150390625 519.465820312 50.2470703125 519.465820312 c 0
 73.5791015625 519.465820312 92.4931640625 500.551757812 92.4921875 477.219726562 c 2
 92.494140625 298.256835938 l 2
 92.494140625 222.749023438 153.705078125 161.538085938 229.212890625 161.538085938 c 0
 304.719726562 161.538085938 365.930664062 222.749023438 365.930664062 298.256835938 c 2
 365.928710938 477.220703125 l 2
 365.9296875 500.552734375 384.84375 519.466796875 408.174804688 519.466796875 c 0
 431.506835938 519.466796875 450.420898438 500.552734375 450.419921875 477.220703125 c 2
 450.421875 298.256835938 l 2
 450.422851562 222.749023438 511.633789062 161.538085938 587.140625 161.538085938 c 0
 662.6484375 161.538085938 723.859375 222.749023438 723.859375 298.256835938 c 2
 723.856445312 477.220703125 l 2
 723.857421875 500.552734375 742.771484375 519.466796875 766.103515625 519.466796875 c 0
 789.435546875 519.466796875 808.349609375 500.552734375 808.348632812 477.220703125 c 2
 808.349609375 298.256835938 l 2
 808.349609375 176.0859375 709.310546875 77.046875 587.139648438 77.046875 c 0
 513.571289062 77.046875 448.391601562 112.958984375 408.174804688 168.208984375 c 1
 367.958007812 112.958984375 302.778320312 77.046875 229.2109375 77.046875 c 0
EndSplineSet
EndChar

StartChar: x
Encoding: 120 120 23
Width: 509
VWidth: 0
Flags: HW
LayerCount: 2
Fore
SplineSet
453.672851562 502.35546875 m 0
 478.967773438 502.893554688 501.256835938 480.620117188 500.720703125 455.307617188 c 0
 500.989257812 442.720703125 495.534179688 430.697265625 486.942382812 422.041015625 c 0
 440.120117188 375.21875 367.723632812 302.822265625 320.901367188 256 c 1
 366.374023438 210.52734375 441.469726562 135.431640625 486.942382812 89.958984375 c 0
 495.543945312 81.3037109375 500.98828125 69.2939453125 500.720703125 56.6923828125 c 0
 501.259765625 31.3974609375 478.985351562 9.1083984375 453.672851562 9.64453125 c 0
 441.020507812 9.375 429.07421875 14.7529296875 420.40625 23.4228515625 c 0
 377.981445312 65.8486328125 296.791015625 147.0390625 254.365234375 189.463867188 c 1
 206.6484375 141.74609375 136.04296875 71.140625 88.3251953125 23.4228515625 c 0
 79.654296875 14.7197265625 67.7451171875 9.3759765625 55.05859375 9.64453125 c 0
 29.763671875 9.1064453125 7.474609375 31.3798828125 8.0107421875 56.6923828125 c 0
 7.7373046875 69.5439453125 12.8798828125 81.2587890625 21.7890625 89.958984375 c 2
 187.830078125 256 l 1
 21.7890625 422.041015625 l 2
 13.017578125 430.720703125 7.740234375 442.563476562 8.0107421875 455.307617188 c 0
 7.4716796875 480.602539062 29.74609375 502.891601562 55.05859375 502.35546875 c 0
 67.755859375 502.625976562 79.6494140625 497.30078125 88.3251953125 488.577148438 c 2
 254.365234375 322.536132812 l 1
 302.390625 370.561523438 372.381835938 440.551757812 420.40625 488.577148438 c 0
 429.078125 497.291015625 440.9765625 502.624023438 453.672851562 502.35546875 c 0
EndSplineSet
EndChar

StartChar: y
Encoding: 121 121 24
Width: 509
VWidth: 0
Flags: HW
LayerCount: 2
Fore
SplineSet
500.7109375 103.752929688 m 2
 500.7109375 -32.3056640625 390.4140625 -142.602539062 254.356445312 -142.602539062 c 0
 228.372070312 -142.602539062 207.307617188 -121.5390625 207.307617188 -95.5546875 c 0
 207.307617188 -69.5703125 228.372070312 -48.5068359375 254.356445312 -48.5068359375 c 0
 322.01953125 -48.5068359375 379.380859375 -4.3427734375 399.208007812 56.7080078125 c 1
 358.552734375 27.107421875 308.494140625 9.64453125 254.356445312 9.64453125 c 0
 118.297851562 9.64453125 8.0009765625 119.94140625 8.001953125 256 c 2
 8 455.306640625 l 2
 8.0009765625 481.291015625 29.064453125 502.354492188 55.048828125 502.354492188 c 0
 81.033203125 502.354492188 102.096679688 481.291015625 102.095703125 455.306640625 c 2
 102.098632812 256 l 2
 102.098632812 171.91015625 170.267578125 103.741210938 254.357421875 103.741210938 c 0
 338.448242188 103.741210938 406.616210938 171.91015625 406.616210938 256 c 2
 406.614257812 455.307617188 l 2
 406.615234375 481.291015625 427.6796875 502.35546875 453.663085938 502.35546875 c 0
 479.647460938 502.35546875 500.7109375 481.291015625 500.709960938 455.307617188 c 2
 500.7109375 279.530273438 l 1
 500.7109375 103.752929688 l 2
EndSplineSet
EndChar

StartChar: z
Encoding: 122 122 25
Width: 508
VWidth: 0
Flags: HW
LayerCount: 2
Fore
SplineSet
500.229492188 56.93359375 m 0
 500.229492188 30.94921875 479.165039062 9.8857421875 453.181640625 10.005859375 c 2
 55.0478515625 10.005859375 l 2
 29.064453125 9.8857421875 8 30.94921875 8 56.93359375 c 0
 8 69.802734375 13.1669921875 81.4658203125 21.5390625 89.9599609375 c 2
 339.840820312 408.259765625 l 1
 55.0478515625 408.138671875 l 2
 29.064453125 408.018554688 8 429.083007812 8 455.06640625 c 0
 8 481.05078125 29.064453125 502.115234375 55.0478515625 501.994140625 c 2
 453.181640625 501.994140625 l 2
 479.165039062 502.115234375 500.229492188 481.05078125 500.229492188 455.06640625 c 0
 500.229492188 442.198242188 495.063476562 430.537109375 486.69140625 422.041992188 c 2
 168.391601562 103.740234375 l 1
 453.181640625 103.861328125 l 2
 479.165039062 103.981445312 500.229492188 82.9169921875 500.229492188 56.93359375 c 0
EndSplineSet
EndChar

StartChar: A
Encoding: 65 65 26
Width: 509
VWidth: 0
Flags: HW
LayerCount: 2
Fore
SplineSet
406.608398438 62.3125 m 1
 364.702148438 29.32421875 311.827148438 9.64453125 254.35546875 9.64453125 c 0
 118.296875 9.64453125 8 119.94140625 8 256 c 0
 7.9970703125 392.05859375 118.293945312 502.35546875 254.3515625 502.35546875 c 0
 390.41015625 502.35546875 500.70703125 392.05859375 500.70703125 256 c 2
 500.708007812 56.693359375 l 2
 500.708984375 30.708984375 479.64453125 9.64453125 453.661132812 9.64453125 c 0
 427.676757812 9.64453125 406.612304688 30.708984375 406.612304688 56.693359375 c 2
 406.608398438 62.3125 l 1
254.353515625 103.741210938 m 0
 338.444335938 103.741210938 406.612304688 171.909179688 406.612304688 256 c 0
 406.612304688 340.090820312 338.444335938 408.258789062 254.353515625 408.258789062 c 0
 170.263671875 408.258789062 102.094726562 340.090820312 102.094726562 256 c 0
 102.094726562 171.909179688 170.263671875 103.741210938 254.353515625 103.741210938 c 0
EndSplineSet
EndChar

StartChar: B
Encoding: 66 66 27
Width: 509
VWidth: 0
Flags: HW
LayerCount: 2
Fore
SplineSet
55.0478515625 654.602539062 m 0
 81.0322265625 654.602539062 102.095703125 633.538085938 102.096679688 607.553710938 c 2
 102.098632812 449.6875 l 1
 144.005859375 482.67578125 196.879882812 502.356445312 254.350585938 502.356445312 c 0
 390.409179688 502.356445312 500.706054688 392.059570312 500.706054688 256.000976562 c 0
 500.709960938 119.942382812 390.413085938 9.6455078125 254.354492188 9.6455078125 c 0
 118.296875 9.6455078125 8 119.942382812 8 256.000976562 c 2
 8 607.553710938 l 2
 7.9990234375 633.538085938 29.064453125 654.602539062 55.0478515625 654.602539062 c 0
254.352539062 408.258789062 m 0
 170.262695312 408.258789062 102.094726562 340.091796875 102.094726562 256.000976562 c 0
 102.094726562 171.91015625 170.262695312 103.741210938 254.352539062 103.741210938 c 0
 338.443359375 103.741210938 406.612304688 171.91015625 406.612304688 256.000976562 c 0
 406.612304688 340.091796875 338.443359375 408.258789062 254.352539062 408.258789062 c 0
EndSplineSet
EndChar

StartChar: C
Encoding: 67 67 28
Width: 450
VWidth: 0
Flags: HW
LayerCount: 2
Fore
SplineSet
80.1552734375 81.80078125 m 0
 -16.0517578125 178.0078125 -16.0517578125 333.9921875 80.1552734375 430.19921875 c 0
 176.36328125 526.407226562 332.346679688 526.407226562 428.5546875 430.19921875 c 0
 446.927734375 411.826171875 446.927734375 382.037109375 428.5546875 363.663085938 c 0
 410.180664062 345.290039062 380.391601562 345.290039062 362.018554688 363.663085938 c 0
 302.557617188 423.124023438 206.15234375 423.124023438 146.69140625 363.663085938 c 0
 87.23046875 304.202148438 87.23046875 207.797851562 146.69140625 148.336914062 c 0
 206.15234375 88.8759765625 302.557617188 88.8759765625 362.018554688 148.336914062 c 0
 380.391601562 166.709960938 410.180664062 166.709960938 428.5546875 148.336914062 c 0
 446.927734375 129.962890625 446.927734375 100.173828125 428.5546875 81.80078125 c 0
 332.346679688 -14.4072265625 176.36328125 -14.4072265625 80.1552734375 81.80078125 c 0
EndSplineSet
EndChar

StartChar: D
Encoding: 68 68 29
Width: 509
VWidth: 0
Flags: HW
LayerCount: 2
Fore
SplineSet
406.608398438 449.69921875 m 1
 406.610351562 607.56640625 l 2
 406.611328125 633.549804688 427.674804688 654.614257812 453.659179688 654.614257812 c 0
 479.642578125 654.614257812 500.70703125 633.549804688 500.706054688 607.56640625 c 2
 500.70703125 256.01171875 l 2
 500.70703125 119.953125 390.41015625 9.65625 254.3515625 9.65625 c 0
 118.293945312 9.65625 7.99609375 119.953125 8 256.01171875 c 0
 8 392.0703125 118.296875 502.3671875 254.35546875 502.3671875 c 0
 311.826171875 502.3671875 364.701171875 482.6875 406.608398438 449.69921875 c 1
254.353515625 408.270507812 m 0
 170.262695312 408.270507812 102.094726562 340.1015625 102.094726562 256.01171875 c 0
 102.094726562 171.920898438 170.262695312 103.752929688 254.353515625 103.752929688 c 0
 338.443359375 103.752929688 406.612304688 171.920898438 406.612304688 256.01171875 c 0
 406.612304688 340.1015625 338.443359375 408.270507812 254.353515625 408.270507812 c 0
EndSplineSet
EndChar

StartChar: E
Encoding: 69 69 30
Width: 509
VWidth: 0
Flags: HW
LayerCount: 2
Fore
SplineSet
254.35546875 502.356445312 m 0
 390.413085938 502.356445312 500.709960938 392.059570312 500.709960938 256.000976562 c 0
 500.709960938 230.016601562 479.645507812 208.952148438 453.661132812 208.952148438 c 2
 109.502929688 208.959960938 l 1
 129.3203125 147.891601562 186.681640625 103.741210938 254.35546875 103.741210938 c 0
 280.338867188 103.741210938 301.403320312 82.6767578125 301.403320312 56.6923828125 c 0
 301.403320312 30.708984375 280.338867188 9.6455078125 254.35546875 9.6455078125 c 0
 118.296875 9.6455078125 8 119.942382812 8 256.000976562 c 0
 8 392.059570312 118.296875 502.356445312 254.35546875 502.356445312 c 0
254.35546875 408.258789062 m 0
 186.685546875 408.258789062 129.325195312 364.114257812 109.50390625 303.051757812 c 1
 399.20703125 303.043945312 l 1
 379.388671875 364.110351562 322.02734375 408.258789062 254.35546875 408.258789062 c 0
EndSplineSet
EndChar

StartChar: F
Encoding: 70 70 31
Width: 309
VWidth: 0
Flags: HW
LayerCount: 2
Fore
SplineSet
8 56.6923828125 m 2
 8 408.252929688 l 2
 8 544.305664062 118.296875 654.602539062 254.35546875 654.602539062 c 0
 280.338867188 654.602539062 301.403320312 633.5390625 301.403320312 607.5546875 c 0
 301.403320312 581.571289062 280.338867188 560.506835938 254.354492188 560.506835938 c 0
 186.682617188 560.506835938 129.321289062 516.357421875 109.502929688 455.291992188 c 1
 150.159179688 484.892578125 200.217773438 502.35546875 254.354492188 502.35546875 c 0
 280.338867188 502.35546875 301.403320312 481.291015625 301.403320312 455.307617188 c 0
 301.403320312 429.323242188 280.338867188 408.259765625 254.354492188 408.259765625 c 0
 170.264648438 408.258789062 102.095703125 340.090820312 102.095703125 256 c 2
 102.095703125 56.6923828125 l 2
 102.095703125 30.708984375 81.0322265625 9.64453125 55.0478515625 9.64453125 c 0
 29.0634765625 9.64453125 8 30.708984375 8 56.6923828125 c 2
EndSplineSet
EndChar

StartChar: G
Encoding: 71 71 32
Width: 509
VWidth: 0
Flags: HW
LayerCount: 2
Fore
SplineSet
361.997070312 -6.71875 m 0
 379.595703125 10.8798828125 391.985351562 31.7158203125 399.166992188 53.87109375 c 1
 358.518554688 24.287109375 308.473632812 6.8349609375 254.352539062 6.8349609375 c 0
 118.293945312 6.8349609375 7.9970703125 117.131835938 8 253.190429688 c 0
 8 389.248046875 118.296875 499.544921875 254.35546875 499.544921875 c 0
 311.827148438 499.544921875 364.702148438 479.865234375 406.608398438 446.877929688 c 1
 406.612304688 452.497070312 l 2
 406.61328125 478.481445312 427.676757812 499.544921875 453.661132812 499.544921875 c 0
 479.64453125 499.544921875 500.708984375 478.481445312 500.708007812 452.497070312 c 2
 500.70703125 253.190429688 l 1
 500.70703125 100.930664062 l 2
 500.704101562 37.8876953125 476.6328125 -25.154296875 428.533203125 -73.2548828125 c 0
 332.325195312 -169.461914062 176.341796875 -169.461914062 80.1337890625 -73.2548828125 c 0
 61.7607421875 -54.880859375 61.7607421875 -25.091796875 80.1337890625 -6.71875 c 0
 98.5068359375 11.6552734375 128.296875 11.6552734375 146.669921875 -6.71875 c 0
 206.130859375 -66.1796875 302.536132812 -66.1796875 361.997070312 -6.71875 c 0
254.353515625 100.930664062 m 0
 338.444335938 100.930664062 406.61328125 169.099609375 406.61328125 253.190429688 c 0
 406.61328125 337.280273438 338.444335938 405.44921875 254.353515625 405.44921875 c 0
 170.263671875 405.44921875 102.094726562 337.280273438 102.094726562 253.190429688 c 0
 102.094726562 169.099609375 170.263671875 100.930664062 254.353515625 100.930664062 c 0
EndSplineSet
EndChar

StartChar: H
Encoding: 72 72 33
Width: 509
VWidth: 0
Flags: HW
LayerCount: 2
Fore
SplineSet
8 607.5546875 m 2
 8 633.5390625 29.0634765625 654.602539062 55.0478515625 654.602539062 c 0
 81.03125 654.602539062 102.095703125 633.5390625 102.096679688 607.5546875 c 2
 102.098632812 449.6875 l 1
 144.004882812 482.67578125 196.879882812 502.35546875 254.3515625 502.35546875 c 0
 390.41015625 502.35546875 500.70703125 392.05859375 500.70703125 256 c 2
 500.7109375 56.693359375 l 2
 500.709960938 30.7099609375 479.645507812 9.6455078125 453.662109375 9.6455078125 c 0
 427.677734375 9.6455078125 406.61328125 30.7099609375 406.614257812 56.693359375 c 2
 406.611328125 256 l 2
 406.611328125 340.090820312 338.442382812 408.258789062 254.352539062 408.258789062 c 0
 170.26171875 408.258789062 102.09375 340.090820312 102.09375 256 c 2
 102.095703125 56.6923828125 l 2
 102.094726562 30.708984375 81.03125 9.64453125 55.046875 9.64453125 c 0
 29.0634765625 9.64453125 8 30.708984375 8 56.6923828125 c 2
 8 332.124023438 l 1
 8 607.5546875 l 2
EndSplineSet
EndChar

StartChar: I
Encoding: 73 73 34
Width: 110
VWidth: 0
Flags: HW
LayerCount: 2
Fore
SplineSet
102.095703125 607.5546875 m 0
 102.095703125 581.5703125 81.0322265625 560.506835938 55.0478515625 560.506835938 c 0
 29.0634765625 560.506835938 8 581.5703125 8 607.5546875 c 0
 8 633.5390625 29.0634765625 654.602539062 55.0478515625 654.602539062 c 0
 81.0322265625 654.602539062 102.095703125 633.5390625 102.095703125 607.5546875 c 0
102.095703125 56.693359375 m 2
 102.095703125 30.708984375 81.0322265625 9.64453125 55.0478515625 9.64453125 c 0
 29.064453125 9.64453125 8 30.708984375 8 56.693359375 c 2
 8 455.301757812 l 2
 8 481.279296875 29.0634765625 502.34375 55.0478515625 502.34375 c 0
 81.0322265625 502.34375 102.095703125 481.279296875 102.095703125 455.301757812 c 2
 102.095703125 56.693359375 l 2
EndSplineSet
EndChar

StartChar: J
Encoding: 74 74 35
Width: 168
VWidth: 0
Flags: HW
LayerCount: 2
Fore
SplineSet
88.31640625 -70.9453125 m 0
 69.943359375 -89.3193359375 40.154296875 -89.3193359375 21.779296875 -70.9453125 c 0
 3.40625 -52.572265625 3.40625 -22.783203125 21.779296875 -4.41015625 c 0
 51.6328125 25.443359375 66.498046875 64.609375 66.376953125 103.737304688 c 2
 66.376953125 455.301757812 l 2
 66.376953125 481.279296875 87.44140625 502.34375 113.42578125 502.34375 c 0
 139.41015625 502.34375 160.47265625 481.279296875 160.47265625 455.301757812 c 2
 160.47265625 103.732421875 l 2
 160.591796875 40.51953125 136.5390625 -22.72265625 88.31640625 -70.9453125 c 0
113.42578125 560.506835938 m 0
 87.44140625 560.506835938 66.376953125 581.5703125 66.376953125 607.5546875 c 0
 66.376953125 633.5390625 87.44140625 654.602539062 113.42578125 654.602539062 c 0
 139.41015625 654.602539062 160.47265625 633.5390625 160.47265625 607.5546875 c 0
 160.47265625 581.5703125 139.41015625 560.506835938 113.42578125 560.506835938 c 0
EndSplineSet
EndChar

StartChar: K
Encoding: 75 75 36
Width: 309
VWidth: 0
Flags: HW
LayerCount: 2
Fore
SplineSet
102.095703125 56.779296875 m 2
 102.095703125 30.708984375 81.0322265625 9.64453125 55.0478515625 9.64453125 c 0
 29.0634765625 9.64453125 8 30.708984375 8 56.779296875 c 2
 8 607.5546875 l 2
 8 633.5390625 29.0634765625 654.602539062 55.0478515625 654.602539062 c 0
 81.0322265625 654.602539062 102.095703125 633.5390625 102.095703125 607.5546875 c 2
 102.095703125 369.583984375 l 1
 142.41015625 409.899414062 187.212890625 454.702148438 221.086914062 488.576171875 c 0
 229.758789062 497.291015625 241.657226562 502.624023438 254.353515625 502.35546875 c 0
 279.6484375 502.893554688 301.9375 480.620117188 301.401367188 455.306640625 c 0
 301.669921875 442.720703125 296.21484375 430.696289062 287.623046875 422.041015625 c 0
 240.80078125 375.21875 168.404296875 302.822265625 121.58203125 256 c 1
 167.0546875 210.52734375 242.150390625 135.431640625 287.623046875 89.958984375 c 0
 296.224609375 81.3037109375 301.66796875 69.2939453125 301.401367188 56.6923828125 c 0
 301.940429688 31.3974609375 279.666015625 9.1083984375 254.353515625 9.64453125 c 0
 241.701171875 9.375 229.754882812 14.751953125 221.086914062 23.4228515625 c 0
 191.508789062 53.0009765625 143.087890625 101.421875 102.096679688 142.411132812 c 1
 102.095703125 56.779296875 l 2
EndSplineSet
EndChar

StartChar: L
Encoding: 76 76 37
Width: 110
VWidth: 0
Flags: HW
LayerCount: 2
Fore
SplineSet
55.0478515625 9.64453125 m 0
 29.0634765625 9.64453125 8 30.708984375 8 56.779296875 c 2
 8 607.5546875 l 2
 8 633.5390625 29.0634765625 654.602539062 55.0478515625 654.602539062 c 0
 81.0322265625 654.602539062 102.095703125 633.5390625 102.095703125 607.5546875 c 2
 102.095703125 56.779296875 l 2
 102.095703125 30.708984375 81.0322265625 9.64453125 55.0478515625 9.64453125 c 0
EndSplineSet
EndChar

StartChar: M
Encoding: 77 77 38
Width: 816
VWidth: 0
Flags: HW
LayerCount: 2
Fore
SplineSet
229.208007812 519.466796875 m 0
 302.778320312 519.466796875 367.9609375 483.551757812 408.188476562 428.315429688 c 1
 448.41796875 483.567382812 513.587890625 519.466796875 587.139648438 519.466796875 c 0
 709.30859375 519.466796875 808.34765625 420.427734375 808.34765625 298.255859375 c 2
 808.350585938 119.29296875 l 2
 808.350585938 95.9609375 789.435546875 77.046875 766.104492188 77.046875 c 0
 742.772460938 77.046875 723.858398438 95.9609375 723.859375 119.29296875 c 2
 723.857421875 298.255859375 l 2
 723.857421875 373.763671875 662.646484375 434.974609375 587.138671875 434.974609375 c 0
 511.631835938 434.974609375 450.420898438 373.763671875 450.419921875 298.255859375 c 2
 450.422851562 119.29296875 l 2
 450.421875 95.9609375 431.5078125 77.046875 408.17578125 77.046875 c 0
 384.84375 77.046875 365.9296875 95.9609375 365.930664062 119.29296875 c 2
 365.927734375 298.255859375 l 2
 365.927734375 373.763671875 304.716796875 434.974609375 229.209960938 434.974609375 c 0
 153.702148438 434.974609375 92.4912109375 373.763671875 92.4912109375 298.255859375 c 2
 92.494140625 119.291992188 l 2
 92.4931640625 95.9599609375 73.5791015625 77.0458984375 50.2470703125 77.0458984375 c 0
 26.9150390625 77.0458984375 8.0009765625 95.9599609375 8.001953125 119.291992188 c 2
 8.0009765625 366.610351562 l 1
 8 477.220703125 l 2
 8 500.552734375 26.9140625 519.466796875 50.2451171875 519.466796875 c 0
 73.5771484375 519.466796875 92.4912109375 500.552734375 92.4921875 477.220703125 c 2
 92.4951171875 472.173828125 l 1
 130.125 501.795898438 177.602539062 519.466796875 229.208007812 519.466796875 c 0
EndSplineSet
EndChar

StartChar: N
Encoding: 78 78 39
Width: 509
VWidth: 0
Flags: HW
LayerCount: 2
Fore
SplineSet
8 455.306640625 m 2
 7.9990234375 481.291015625 29.0634765625 502.35546875 55.046875 502.35546875 c 0
 81.03125 502.35546875 102.095703125 481.291015625 102.095703125 455.306640625 c 2
 102.099609375 449.6875 l 1
 144.005859375 482.67578125 196.880859375 502.35546875 254.352539062 502.35546875 c 0
 390.411132812 502.35546875 500.708007812 392.05859375 500.708007812 256 c 2
 500.711914062 56.693359375 l 2
 500.7109375 30.708984375 479.646484375 9.6455078125 453.663085938 9.6455078125 c 0
 427.678710938 9.6455078125 406.614257812 30.708984375 406.615234375 56.693359375 c 2
 406.612304688 256 l 2
 406.612304688 340.090820312 338.444335938 408.258789062 254.353515625 408.258789062 c 0
 170.262695312 408.258789062 102.094726562 340.090820312 102.094726562 256 c 2
 102.096679688 56.6923828125 l 2
 102.095703125 30.708984375 81.0322265625 9.64453125 55.0478515625 9.64453125 c 0
 29.0634765625 9.64453125 8 30.708984375 8.0009765625 56.6923828125 c 2
 8.0009765625 332.124023438 l 1
 8 455.306640625 l 2
EndSplineSet
EndChar

StartChar: O
Encoding: 79 79 40
Width: 509
VWidth: 0
Flags: HW
LayerCount: 2
Fore
SplineSet
406.614257812 256 m 0
 406.614257812 340.046875 338.40234375 408.258789062 254.354492188 408.258789062 c 0
 170.307617188 408.258789062 102.095703125 340.046875 102.095703125 256 c 0
 102.095703125 171.953125 170.307617188 103.741210938 254.354492188 103.741210938 c 0
 338.40234375 103.741210938 406.614257812 171.953125 406.614257812 256 c 0
500.709960938 256 m 0
 500.709960938 119.94140625 390.413085938 9.64453125 254.354492188 9.64453125 c 0
 118.296875 9.64453125 8 119.94140625 8 256 c 0
 8 392.05859375 118.296875 502.35546875 254.354492188 502.35546875 c 0
 390.413085938 502.35546875 500.709960938 392.05859375 500.709960938 256 c 0
EndSplineSet
EndChar

StartChar: P
Encoding: 80 80 41
Width: 509
VWidth: 0
Flags: HW
LayerCount: 2
Fore
SplineSet
102.098632812 62.3125 m 1
 102.096679688 -95.5546875 l 2
 102.095703125 -121.5390625 81.0322265625 -142.602539062 55.0478515625 -142.602539062 c 0
 29.0634765625 -142.602539062 8 -121.5390625 8.0009765625 -95.5546875 c 2
 8 256 l 2
 8 392.05859375 118.296875 502.35546875 254.35546875 502.35546875 c 0
 390.413085938 502.35546875 500.709960938 392.05859375 500.70703125 256 c 0
 500.70703125 119.94140625 390.41015625 9.64453125 254.3515625 9.64453125 c 0
 196.879882812 9.64453125 144.004882812 29.32421875 102.098632812 62.3125 c 1
254.353515625 103.741210938 m 0
 338.443359375 103.741210938 406.612304688 171.909179688 406.612304688 256 c 0
 406.612304688 340.090820312 338.443359375 408.258789062 254.353515625 408.258789062 c 0
 170.262695312 408.258789062 102.094726562 340.090820312 102.094726562 256 c 0
 102.094726562 171.909179688 170.262695312 103.741210938 254.353515625 103.741210938 c 0
EndSplineSet
EndChar

StartChar: Q
Encoding: 81 81 42
Width: 509
VWidth: 0
Flags: HW
LayerCount: 2
Fore
SplineSet
406.608398438 62.30078125 m 1
 364.702148438 29.3125 311.827148438 9.6328125 254.35546875 9.6328125 c 0
 118.296875 9.6328125 8 119.9296875 8 255.98828125 c 0
 7.9970703125 392.046875 118.293945312 502.34375 254.3515625 502.34375 c 0
 390.41015625 502.34375 500.70703125 392.046875 500.70703125 255.98828125 c 2
 500.706054688 -95.56640625 l 2
 500.70703125 -121.549804688 479.643554688 -142.614257812 453.659179688 -142.614257812 c 0
 427.674804688 -142.614257812 406.611328125 -121.549804688 406.610351562 -95.56640625 c 2
 406.608398438 62.30078125 l 1
254.353515625 103.729492188 m 0
 338.444335938 103.729492188 406.612304688 171.8984375 406.612304688 255.98828125 c 0
 406.612304688 340.079101562 338.444335938 408.247070312 254.353515625 408.247070312 c 0
 170.263671875 408.247070312 102.094726562 340.079101562 102.094726562 255.98828125 c 0
 102.094726562 171.8984375 170.263671875 103.729492188 254.353515625 103.729492188 c 0
EndSplineSet
EndChar

StartChar: R
Encoding: 82 82 43
Width: 309
VWidth: 0
Flags: HW
LayerCount: 2
Fore
SplineSet
102.095703125 256 m 2
 102.09765625 56.693359375 l 2
 102.096679688 30.708984375 81.0322265625 9.64453125 55.048828125 9.64453125 c 0
 29.064453125 9.64453125 8.0009765625 30.708984375 8.001953125 56.693359375 c 2
 8.0009765625 332.124023438 l 1
 8 455.306640625 l 2
 7.9990234375 481.291015625 29.0634765625 502.35546875 55.046875 502.35546875 c 0
 81.03125 502.35546875 102.095703125 481.291015625 102.095703125 455.306640625 c 2
 102.099609375 449.6875 l 1
 144.005859375 482.67578125 196.880859375 502.35546875 254.354492188 502.35546875 c 0
 280.33984375 502.35546875 301.404296875 481.287109375 301.404296875 455.297851562 c 0
 301.404296875 429.30859375 280.33984375 408.240234375 254.35546875 408.249023438 c 0
 170.263671875 408.258789062 102.095703125 340.090820312 102.095703125 256 c 2
EndSplineSet
EndChar

StartChar: S
Encoding: 83 83 44
Width: 392
VWidth: 0
Flags: HW
LayerCount: 2
Fore
SplineSet
21.7890625 430.19921875 m 0
 117.997070312 526.408203125 273.98046875 526.407226562 370.188476562 430.200195312 c 0
 388.561523438 411.826171875 388.561523438 382.037109375 370.1875 363.6640625 c 0
 351.814453125 345.291015625 322.025390625 345.291015625 303.65234375 363.6640625 c 0
 255.80859375 411.506835938 184.0234375 420.838867188 126.833984375 391.69140625 c 1
 370.204101562 148.3203125 l 2
 388.561523438 129.963867188 388.561523438 100.174804688 370.186523438 81.80078125 c 0
 273.978515625 -14.40625 117.995117188 -14.40625 21.787109375 81.80078125 c 0
 3.4130859375 100.173828125 3.4130859375 129.962890625 21.7861328125 148.3359375 c 0
 40.16015625 166.709960938 69.94921875 166.709960938 88.3232421875 148.336914062 c 0
 136.174804688 100.486328125 207.952148438 91.142578125 265.146484375 120.306640625 c 1
 21.7216796875 363.729492188 l 2
 3.4150390625 382.036132812 3.4150390625 411.825195312 21.7890625 430.19921875 c 0
EndSplineSet
EndChar

StartChar: T
Encoding: 84 84 45
Width: 309
VWidth: 0
Flags: HW
LayerCount: 2
Fore
SplineSet
102.095703125 256 m 2
 102.09765625 56.6923828125 l 2
 102.096679688 30.708984375 81.0322265625 9.64453125 55.048828125 9.64453125 c 0
 29.064453125 9.64453125 8.0009765625 30.708984375 8.001953125 56.6923828125 c 2
 8.0009765625 332.124023438 l 1
 8 607.5546875 l 2
 7.9990234375 633.5390625 29.0634765625 654.602539062 55.046875 654.602539062 c 0
 81.03125 654.602539062 102.095703125 633.5390625 102.095703125 607.5546875 c 2
 102.099609375 449.6875 l 1
 144.005859375 482.67578125 196.880859375 502.35546875 254.354492188 502.35546875 c 0
 280.33984375 502.35546875 301.404296875 481.287109375 301.404296875 455.297851562 c 0
 301.404296875 429.30859375 280.33984375 408.240234375 254.35546875 408.249023438 c 0
 170.263671875 408.258789062 102.095703125 340.090820312 102.095703125 256 c 2
EndSplineSet
EndChar

StartChar: U
Encoding: 85 85 46
Width: 509
VWidth: 0
Flags: HW
LayerCount: 2
Fore
SplineSet
500.711914062 56.693359375 m 2
 500.712890625 30.708984375 479.6484375 9.64453125 453.665039062 9.64453125 c 0
 427.680664062 9.64453125 406.616210938 30.708984375 406.616210938 56.693359375 c 2
 406.612304688 62.3125 l 1
 364.706054688 29.32421875 311.831054688 9.64453125 254.359375 9.64453125 c 0
 118.30078125 9.64453125 8.00390625 119.94140625 8.00390625 256 c 2
 8 455.306640625 l 2
 8.0009765625 481.291015625 29.0654296875 502.354492188 55.048828125 502.354492188 c 0
 81.033203125 502.354492188 102.09765625 481.291015625 102.096679688 455.306640625 c 2
 102.098632812 256 l 2
 102.098632812 171.91015625 170.267578125 103.741210938 254.358398438 103.741210938 c 0
 338.448242188 103.741210938 406.6171875 171.91015625 406.6171875 256 c 2
 406.614257812 455.307617188 l 2
 406.615234375 481.291015625 427.6796875 502.35546875 453.663085938 502.35546875 c 0
 479.647460938 502.35546875 500.711914062 481.291015625 500.7109375 455.307617188 c 2
 500.7109375 179.875976562 l 1
 500.711914062 56.693359375 l 2
EndSplineSet
EndChar

StartChar: V
Encoding: 86 86 47
Width: 509
VWidth: 0
Flags: HW
LayerCount: 2
Fore
SplineSet
8 455.306640625 m 2
 8.0009765625 481.291015625 29.064453125 502.354492188 55.048828125 502.354492188 c 0
 81.033203125 502.354492188 102.096679688 481.291015625 102.095703125 455.306640625 c 2
 102.098632812 256 l 2
 102.098632812 171.91015625 170.267578125 103.741210938 254.357421875 103.741210938 c 0
 338.448242188 103.741210938 406.616210938 171.91015625 406.616210938 256 c 2
 406.614257812 455.307617188 l 2
 406.615234375 481.291015625 427.6796875 502.35546875 453.663085938 502.35546875 c 0
 479.647460938 502.35546875 500.7109375 481.291015625 500.709960938 455.307617188 c 2
 500.7109375 256 l 2
 500.7109375 119.94140625 390.4140625 9.64453125 254.356445312 9.64453125 c 0
 118.297851562 9.64453125 8.0009765625 119.94140625 8.001953125 256 c 2
 8 455.306640625 l 2
EndSplineSet
EndChar

StartChar: W
Encoding: 87 87 48
Width: 816
VWidth: 0
Flags: HW
LayerCount: 2
Fore
SplineSet
229.2109375 77.046875 m 0
 107.040039062 77.046875 8.0009765625 176.0859375 8.0029296875 298.256835938 c 2
 8 477.219726562 l 2
 8.0009765625 500.551757812 26.9150390625 519.465820312 50.2470703125 519.465820312 c 0
 73.5791015625 519.465820312 92.4931640625 500.551757812 92.4921875 477.219726562 c 2
 92.494140625 298.256835938 l 2
 92.494140625 222.749023438 153.705078125 161.538085938 229.212890625 161.538085938 c 0
 304.719726562 161.538085938 365.930664062 222.749023438 365.930664062 298.256835938 c 2
 365.928710938 477.220703125 l 2
 365.9296875 500.552734375 384.84375 519.466796875 408.174804688 519.466796875 c 0
 431.506835938 519.466796875 450.420898438 500.552734375 450.419921875 477.220703125 c 2
 450.421875 298.256835938 l 2
 450.422851562 222.749023438 511.633789062 161.538085938 587.140625 161.538085938 c 0
 662.6484375 161.538085938 723.859375 222.749023438 723.859375 298.256835938 c 2
 723.856445312 477.220703125 l 2
 723.857421875 500.552734375 742.771484375 519.466796875 766.103515625 519.466796875 c 0
 789.435546875 519.466796875 808.349609375 500.552734375 808.348632812 477.220703125 c 2
 808.349609375 298.256835938 l 2
 808.349609375 176.0859375 709.310546875 77.046875 587.139648438 77.046875 c 0
 513.571289062 77.046875 448.391601562 112.958984375 408.174804688 168.208984375 c 1
 367.958007812 112.958984375 302.778320312 77.046875 229.2109375 77.046875 c 0
EndSplineSet
EndChar

StartChar: X
Encoding: 88 88 49
Width: 509
VWidth: 0
Flags: HW
LayerCount: 2
Fore
SplineSet
453.672851562 502.35546875 m 0
 478.967773438 502.893554688 501.256835938 480.620117188 500.720703125 455.307617188 c 0
 500.989257812 442.720703125 495.534179688 430.697265625 486.942382812 422.041015625 c 0
 440.120117188 375.21875 367.723632812 302.822265625 320.901367188 256 c 1
 366.374023438 210.52734375 441.469726562 135.431640625 486.942382812 89.958984375 c 0
 495.543945312 81.3037109375 500.98828125 69.2939453125 500.720703125 56.6923828125 c 0
 501.259765625 31.3974609375 478.985351562 9.1083984375 453.672851562 9.64453125 c 0
 441.020507812 9.375 429.07421875 14.7529296875 420.40625 23.4228515625 c 0
 377.981445312 65.8486328125 296.791015625 147.0390625 254.365234375 189.463867188 c 1
 206.6484375 141.74609375 136.04296875 71.140625 88.3251953125 23.4228515625 c 0
 79.654296875 14.7197265625 67.7451171875 9.3759765625 55.05859375 9.64453125 c 0
 29.763671875 9.1064453125 7.474609375 31.3798828125 8.0107421875 56.6923828125 c 0
 7.7373046875 69.5439453125 12.8798828125 81.2587890625 21.7890625 89.958984375 c 2
 187.830078125 256 l 1
 21.7890625 422.041015625 l 2
 13.017578125 430.720703125 7.740234375 442.563476562 8.0107421875 455.307617188 c 0
 7.4716796875 480.602539062 29.74609375 502.891601562 55.05859375 502.35546875 c 0
 67.755859375 502.625976562 79.6494140625 497.30078125 88.3251953125 488.577148438 c 2
 254.365234375 322.536132812 l 1
 302.390625 370.561523438 372.381835938 440.551757812 420.40625 488.577148438 c 0
 429.078125 497.291015625 440.9765625 502.624023438 453.672851562 502.35546875 c 0
EndSplineSet
EndChar

StartChar: Y
Encoding: 89 89 50
Width: 509
VWidth: 0
Flags: HW
LayerCount: 2
Fore
SplineSet
500.7109375 103.752929688 m 2
 500.7109375 -32.3056640625 390.4140625 -142.602539062 254.356445312 -142.602539062 c 0
 228.372070312 -142.602539062 207.307617188 -121.5390625 207.307617188 -95.5546875 c 0
 207.307617188 -69.5703125 228.372070312 -48.5068359375 254.356445312 -48.5068359375 c 0
 322.01953125 -48.5068359375 379.380859375 -4.3427734375 399.208007812 56.7080078125 c 1
 358.552734375 27.107421875 308.494140625 9.64453125 254.356445312 9.64453125 c 0
 118.297851562 9.64453125 8.0009765625 119.94140625 8.001953125 256 c 2
 8 455.306640625 l 2
 8.0009765625 481.291015625 29.064453125 502.354492188 55.048828125 502.354492188 c 0
 81.033203125 502.354492188 102.096679688 481.291015625 102.095703125 455.306640625 c 2
 102.098632812 256 l 2
 102.098632812 171.91015625 170.267578125 103.741210938 254.357421875 103.741210938 c 0
 338.448242188 103.741210938 406.616210938 171.91015625 406.616210938 256 c 2
 406.614257812 455.307617188 l 2
 406.615234375 481.291015625 427.6796875 502.35546875 453.663085938 502.35546875 c 0
 479.647460938 502.35546875 500.7109375 481.291015625 500.709960938 455.307617188 c 2
 500.7109375 279.530273438 l 1
 500.7109375 103.752929688 l 2
EndSplineSet
EndChar

StartChar: Z
Encoding: 90 90 51
Width: 508
VWidth: 0
Flags: HW
LayerCount: 2
Fore
SplineSet
500.229492188 56.93359375 m 0
 500.229492188 30.94921875 479.165039062 9.8857421875 453.181640625 10.005859375 c 2
 55.0478515625 10.005859375 l 2
 29.064453125 9.8857421875 8 30.94921875 8 56.93359375 c 0
 8 69.802734375 13.1669921875 81.4658203125 21.5390625 89.9599609375 c 2
 339.840820312 408.259765625 l 1
 55.0478515625 408.138671875 l 2
 29.064453125 408.018554688 8 429.083007812 8 455.06640625 c 0
 8 481.05078125 29.064453125 502.115234375 55.0478515625 501.994140625 c 2
 453.181640625 501.994140625 l 2
 479.165039062 502.115234375 500.229492188 481.05078125 500.229492188 455.06640625 c 0
 500.229492188 442.198242188 495.063476562 430.537109375 486.69140625 422.041992188 c 2
 168.391601562 103.740234375 l 1
 453.181640625 103.861328125 l 2
 479.165039062 103.981445312 500.229492188 82.9169921875 500.229492188 56.93359375 c 0
EndSplineSet
EndChar

StartChar: uni007F
Encoding: 127 127 52
Width: 1116
VWidth: 0
Flags: HW
HStem: -60 60<18 592> 37 60<79 275 335 532> 291 60<18 79 275 335 432 592> 390 60<18 592>
VStem: 18 571<-60 451> 275 60<-60 451> 532 60<-60 194 291 451>
LayerCount: 2
Fore
SplineSet
18 451 m 1xf8
 335 451 l 1
 335 -60 l 1xf4
 18 -60 l 1
 18 451 l 1xf8
18 354 m 1xf8
 335 354 l 1
 335 37 l 1xf4
 18 37 l 1
 18 354 l 1xf8
18 451 m 1xf8
 79 451 l 1
 79 -60 l 1
 18 -60 l 1
 18 451 l 1xf8
275 451 m 1xf4
 335 451 l 1
 335 -60 l 1
 275 -60 l 1
 275 451 l 1xf4
18 37 m 1xf8
 18 97 l 1xf8
 335 97 l 1
 335 37 l 1xf4
 18 37 l 1xf8
18 291 m 1
 18 354 l 1xf8
 335 354 l 1
 335 291 l 1xf4
 18 291 l 1
18 -60 m 1
 18 -3 l 1xf8
 335 -3 l 1
 335 -60 l 1xf4
 18 -60 l 1
18 390 m 1
 18 451 l 1xf8
 335 451 l 1
 335 390 l 1xf4
 18 390 l 1
275 451 m 1xf4
 592 451 l 1
 592 -60 l 1xf8
 275 -60 l 1
 275 451 l 1xf4
275 354 m 1xf4
 592 354 l 1
 592 37 l 1xf8
 275 37 l 1
 275 354 l 1xf4
275 451 m 1xf4
 335 451 l 1
 335 -60 l 1
 275 -60 l 1
 275 451 l 1xf4
532 451 m 1xf2
 592 451 l 1
 592 -60 l 1xf8
 532 -60 l 1
 532 451 l 1xf2
275 37 m 1xf4
 275 97 l 1xf4
 592 97 l 1
 592 37 l 1xf8
 275 37 l 1xf4
275 291 m 1
 275 354 l 1xf4
 592 354 l 1
 592 291 l 1xf8
 275 291 l 1
275 -60 m 1
 275 -3 l 1xf4
 380 0 487 0 592 -3 c 1
 592 -60 l 1xf8
 275 -60 l 1
275 390 m 1
 275 451 l 1xf4
 592 451 l 1
 592 390 l 1xf8
 275 390 l 1
178 354 m 0
 230 354 278 327 307 288 c 1
 336 327 380 354 432 354 c 0
 521 354 592 283 592 194 c 2
 592 68 l 2xf8
 592 52 577 37 561 37 c 0
 545 37 532 52 532 68 c 2
 532 194 l 2
 532 246 484 291 432 291 c 0
 380 291 335 246 335 194 c 2
 335 68 l 2
 335 52 323 37 307 37 c 0
 291 37 275 52 275 68 c 2
 275 194 l 2xf6
 275 246 230 291 178 291 c 0
 126 291 79 246 79 194 c 2
 79 68 l 2
 79 52 66 37 50 37 c 0
 34 37 18 52 18 68 c 2
 18 244 l 1
 18 322 l 2xf8
 18 338 34 354 50 354 c 0
 66 354 79 338 79 322 c 2
 79 320 l 1
 105 341 141 354 178 354 c 0
EndSplineSet
EndChar
